<svg width="52" height="52" fill="none" xmlns="http://www.w3.org/2000/svg"><g clip-path="url(#clip0_92_1182)"><path d="M21.432 39.225c1.66-1.547 1.915-3.97.57-5.412-1.343-1.442-3.779-1.357-5.438.19-1.66 1.547-1.916 3.97-.571 5.413 1.344 1.442 3.78 1.357 5.44-.19z" fill="url(#paint0_linear_92_1182)"/><path d="M43.392 39.227c1.66-1.547 1.915-3.97.57-5.412-1.344-1.443-3.779-1.358-5.438.19-1.66 1.547-1.916 3.97-.571 5.412 1.344 1.442 3.78 1.357 5.44-.19z" fill="url(#paint1_linear_92_1182)"/><path d="M4.018 20.29a1.734 1.734 0 10-3.469 0 1.734 1.734 0 003.469 0z" fill="url(#paint2_linear_92_1182)"/><path d="M35.19 36.252c.616-3.047 3.494-5.469 6.588-5.469 2.979 0 5.126 2.246 5.067 5.133 3.221.085 4.118-4.157 4.118-4.157.271-1.187.676-3.5 1.016-5.77a3.85 3.85 0 00-.247-2.073 35.562 35.562 0 00-3.041-5.635c-1.117-1.666-2.991-2.654-5.13-2.69a232.5 232.5 0 00-3.473-.032l-.008-.008c-.122-2.04-1.61-3.601-3.696-3.788-1.358-.12-6.737-.21-9.319-.21-1.025 0-2.497.015-3.986.04v-.007H5.165a1.735 1.735 0 00-1.734 1.735v.008a1.727 1.727 0 001.726 1.727h3.609a1.726 1.726 0 011.6 1.72v.01a1.733 1.733 0 01-1.733 1.739h-1.85a1.734 1.734 0 100 3.468h1.85a1.735 1.735 0 010 3.47H1.71a1.735 1.735 0 100 3.468h6.923a1.735 1.735 0 010 3.467H6.492a1.733 1.733 0 100 3.469l6.83-.005.569-1.415c1.163-2.145 3.476-3.665 5.926-3.665 3.094 0 5.292 2.424 5.05 5.473h10.321l.001-.003zm-17.206-16.92h-2.328a.01.01 0 00-.006.003.01.01 0 00-.003.005l-.215 1.524a.008.008 0 00.005.01.01.01 0 00.004 0h1.732a.572.572 0 01.58.674.801.801 0 01-.769.673H15.25a.01.01 0 00-.006.002.01.01 0 00-.004.005l-.31 2.213a.801.801 0 01-.768.673.57.57 0 01-.578-.673l.806-5.74a.85.85 0 01.813-.711h2.969a.572.572 0 01.577.673.8.8 0 01-.765.67zm6.221-.885c.242.214.412.498.488.812.084.356.098.726.04 1.087a2.97 2.97 0 01-.663 1.529 2.134 2.134 0 01-.82.596.008.008 0 000 .01l.578 1.665c.155.447-.244.968-.74.968h-.033a.567.567 0 01-.553-.38l-.698-2.03a.01.01 0 00-.003-.004.01.01 0 00-.006-.002h-1.483a.01.01 0 00-.005.002.01.01 0 00-.004.005l-.243 1.735a.801.801 0 01-.768.673.57.57 0 01-.578-.673l.806-5.74a.848.848 0 01.813-.711h2.295s1.008-.032 1.577.458zm6.318.168a.748.748 0 01-.718.629h-2.67c-.002 0-.004 0-.005.002a.01.01 0 00-.004.005l-.212 1.507a.01.01 0 000 .004c0 .001 0 .002.002.003l.003.003h2.077a.534.534 0 01.54.63.748.748 0 01-.717.628h-2.075a.01.01 0 00-.005.002.01.01 0 00-.004.005l-.255 1.814a.01.01 0 00.01.01h2.668a.532.532 0 01.54.629.748.748 0 01-.717.628H25.67a.608.608 0 01-.61-.71l.802-5.7a.85.85 0 01.812-.711h3.31a.533.533 0 01.538.622zm5.546 0a.748.748 0 01-.717.629h-2.67a.01.01 0 00-.01.007l-.21 1.507v.007l.004.003h2.077a.533.533 0 01.54.63.748.748 0 01-.716.628H32.29c-.002 0-.004 0-.006.002a.01.01 0 00-.003.005l-.255 1.814a.01.01 0 00.009.01h2.668a.532.532 0 01.54.629.748.748 0 01-.717.628h-3.31a.608.608 0 01-.61-.71l.801-5.7a.848.848 0 01.813-.711h3.31a.533.533 0 01.538.622zm3.86-.65c.906 0 2.08.012 3.258.03 1.428.024 2.678.68 3.427 1.8.8 1.206 1.52 2.465 2.154 3.767.335.683-.281 1.572-1.089 1.572h-8.658l.907-7.17z" fill="url(#paint3_linear_92_1182)"/><path d="M22.085 21.442H20.48l.305-2.198h1.603s1.177-.076.984 1.099c.006 0-.13 1.099-1.287 1.099z" fill="url(#paint4_linear_92_1182)"/></g><defs><linearGradient id="paint0_linear_92_1182" x1="16.564" y1="34.003" x2="21.432" y2="39.225" gradientUnits="userSpaceOnUse"><stop stop-color="#00B59C"/><stop offset="1" stop-color="#9CFFAC"/></linearGradient><linearGradient id="paint1_linear_92_1182" x1="38.524" y1="34.005" x2="43.392" y2="39.227" gradientUnits="userSpaceOnUse"><stop stop-color="#00B59C"/><stop offset="1" stop-color="#9CFFAC"/></linearGradient><linearGradient id="paint2_linear_92_1182" x1="2.284" y1="18.556" x2="2.284" y2="22.025" gradientUnits="userSpaceOnUse"><stop stop-color="#00B59C"/><stop offset="1" stop-color="#9CFFAC"/></linearGradient><linearGradient id="paint3_linear_92_1182" x1="26.001" y1="11.554" x2="26.001" y2="36.255" gradientUnits="userSpaceOnUse"><stop stop-color="#00B59C"/><stop offset="1" stop-color="#9CFFAC"/></linearGradient><linearGradient id="paint4_linear_92_1182" x1="21.937" y1="19.243" x2="21.937" y2="21.442" gradientUnits="userSpaceOnUse"><stop stop-color="#00B59C"/><stop offset="1" stop-color="#9CFFAC"/></linearGradient><clipPath id="clip0_92_1182"><path fill="#fff" d="M0 0h52v52H0z"/></clipPath></defs></svg>