<svg width="52" height="52" fill="none" xmlns="http://www.w3.org/2000/svg"><g clip-path="url(#clip0_45_296)"><path d="M51.169 20.052l-1.101-11.01a1.524 1.524 0 00-.439-.926l-5.745-5.745a1.522 1.522 0 00-.925-.439L31.948.832a8.6 8.6 0 00-6.964 2.485L2.231 26.07A7.567 7.567 0 000 31.456c0 2.035.792 3.948 2.231 5.386L15.158 49.77A7.567 7.567 0 0020.544 52a7.567 7.567 0 005.386-2.231l22.753-22.753a8.601 8.601 0 002.486-6.964zm-9.798-3.677a4.063 4.063 0 11-5.746-5.746 4.063 4.063 0 015.745 5.746z" fill="url(#paint0_linear_45_296)"/><path d="M31.547 22.438l.761-.762a1.523 1.523 0 00-2.154-2.154l-.887.886a9.568 9.568 0 00-.43-.247c-1.827-.981-4.076-.83-5.87.394-1.64 1.12-2.528 2.898-2.318 4.64.106.876.358 1.833.808 3.023l-5.47 5.471c-.602-.733-.871-1.379-1.131-2.622a1.524 1.524 0 00-2.983.624c.413 1.974.989 3.053 1.952 4.16l-.907.906a1.523 1.523 0 102.155 2.155l1.002-1.002a6.578 6.578 0 003.554 1.028 6.902 6.902 0 003.988-1.274c1.15-.819 1.989-1.975 2.363-3.256.418-1.431.265-2.971-.443-4.453a59.5 59.5 0 01-.48-1.028l4.29-4.29c.408.714.411 1.282.41 1.323a1.524 1.524 0 003.041.2c.06-.876-.208-2.324-1.251-3.723zm-8.76 8.83c1.074 2.248-.446 3.564-.937 3.914-.91.649-2.254.957-3.516.469l4.43-4.431.024.048zm.887-6.438c-.072-.6.325-1.29 1.011-1.758.578-.395 1.452-.67 2.313-.395l-3.127 3.128a7.208 7.208 0 01-.197-.975zm15.183-11.687a1.524 1.524 0 010-2.154L49.399.446a1.523 1.523 0 012.155 2.155L41.01 13.143a1.524 1.524 0 01-2.154 0z" fill="url(#paint1_linear_45_296)"/></g><defs><linearGradient id="paint0_linear_45_296" x1="8.694" y1="43.306" x2="46.757" y2="5.243" gradientUnits="userSpaceOnUse"><stop stop-color="#00B59C"/><stop offset="1" stop-color="#9CFFAC"/></linearGradient><linearGradient id="paint1_linear_45_296" x1="13.003" y1="38.996" x2="51.553" y2=".446" gradientUnits="userSpaceOnUse"><stop stop-color="#C3FFE8"/><stop offset=".997" stop-color="#F0FFF4"/></linearGradient><clipPath id="clip0_45_296"><path fill="#fff" d="M0 0h52v52H0z"/></clipPath></defs></svg>