<svg width="18" height="18" fill="none" xmlns="http://www.w3.org/2000/svg"><g clip-path="url(#clip0_92_1856)"><path d="M14.918 17.198c-.068 0-.135 0-.21-.008a15.663 15.663 0 01-6.81-2.423 15.436 15.436 0 01-4.725-4.724A15.651 15.651 0 01.758 3.218a2.228 2.228 0 01.577-1.732 2.23 2.23 0 01.75-.541C2.378.818 2.685.75 3 .75h2.25c.525 0 1.065.188 1.485.548.413.352.683.847.758 1.387.09.667.255 1.328.487 1.95.15.405.188.84.09 1.26-.09.42-.3.81-.6 1.11l-.54.54a11.334 11.334 0 003.443 3.443l.54-.54a2.18 2.18 0 011.117-.6c.42-.09.855-.06 1.26.09a9.102 9.102 0 001.943.487 2.249 2.249 0 011.942 2.272v2.243a2.236 2.236 0 01-.727 1.665c-.233.21-.503.375-.803.473-.24.082-.48.12-.727.12zM5.265 2.25H3a.7.7 0 00-.3.067.669.669 0 00-.255.173.613.613 0 00-.157.27.846.846 0 00-.038.308 14.24 14.24 0 002.183 6.165 14.005 14.005 0 004.275 4.274 14.185 14.185 0 006.15 2.19.806.806 0 00.292-.037.823.823 0 00.27-.158.61.61 0 00.18-.255.726.726 0 00.06-.307v-2.265a.728.728 0 00-.18-.503.724.724 0 00-.465-.255 10.428 10.428 0 01-2.265-.562.734.734 0 00-.42-.03.738.738 0 00-.375.203l-.945.952a.75.75 0 01-.9.12 12.831 12.831 0 01-4.785-4.777c-.157-.316-.112-.683.128-.923l.952-.953A.73.73 0 006.6 5.58a.73.73 0 00-.03-.42c-.277-.735-.465-1.5-.57-2.272a.75.75 0 00-.247-.458.766.766 0 00-.488-.18z" fill="#3BB77E"/></g><defs><clipPath id="clip0_92_1856"><path fill="#fff" d="M0 0h18v18H0z"/></clipPath></defs></svg>