<svg width="197" height="56" fill="none" xmlns="http://www.w3.org/2000/svg"><path d="M19.075 29.619a1.95 1.95 0 01-2.439-.919L8.105 12.272A3.94 3.94 0 019.81 6.956c.12-.054.23-.11.35-.164 2.199-.886 4.616.405 5.228 2.636l.011.033L20.245 27.3a1.961 1.961 0 01-1.17 2.319z" fill="#F98500"/><path d="M18.616 21.34l-2.417.95a.899.899 0 01-1.138-.502.88.88 0 01.492-1.138l2.593-1.017.47 1.706zm.94 3.422l-2.078.777a.913.913 0 01-1.137-.503.876.876 0 01.503-1.138l2.253-.842.46 1.706z" fill="#FA6D00"/><path d="M29.367 13.552a2.254 2.254 0 01-.94-2.275 3.768 3.768 0 00-2.953-4.43c-.022 0-.055-.011-.077-.011a2.298 2.298 0 01-1.804-1.564 5.318 5.318 0 00-.23-.58 3.756 3.756 0 00-5.042-1.684 3.754 3.754 0 00-1.805 4.78c.383.94.569 1.793-.077 2.701a3.753 3.753 0 00.897 5.24c.011.01.033.02.044.032a2.247 2.247 0 01.908 2.286 3.765 3.765 0 007.251 1.958c1.86.93 4.113.164 5.043-1.685a3.768 3.768 0 00-1.215-4.768z" fill="#598C44"/><path d="M37.899 16.56a2.256 2.256 0 01-.022-2.462c1.148-1.728.667-4.068-1.061-5.217-.022-.01-.044-.033-.066-.044-1.072-.678-.995-1.64-1.083-2.745-.153-2.067-1.968-3.62-4.035-3.467a3.768 3.768 0 00-3.479 3.751c0 1.018-.153 1.87-1.082 2.472a3.753 3.753 0 00-1.138 5.196c.011.01.022.032.033.043a2.236 2.236 0 01-.022 2.461 3.773 3.773 0 001.105 5.207 3.754 3.754 0 004.867-.668c1.378 1.553 3.751 1.707 5.305.34a3.768 3.768 0 00.678-4.868z" fill="#5F9548"/><path d="M43.75 27.125l-10.5-3.5 5.786-17.347c.7-2.089 2.833-3.708 5.053-3.653 1.378.033 2.669.295 3.752 1.17a5.336 5.336 0 011.728 5.863L43.75 27.125z" fill="#FFB531"/><path d="M36.75 18.375v31.5H10.5v-31.5l2.625 1.75 2.625-1.75 2.625 1.75L21 18.375l2.625 1.75 2.625-1.75 2.625 1.75 2.625-1.75 2.625 1.75 2.625-1.75z" fill="#FFB531"/><path d="M36.75 25.627v24.248H10.5V44.57c9.636-3.237 19.184-9.133 26.25-18.943z" fill="#FCAC1F"/><path d="M47.25 18.375v31.5h-10.5v-31.5l2.625 1.75L42 18.375l2.625 1.75 2.625-1.75z" fill="#F98500"/><path d="M10.664 53.375a7 7 0 100-14 7 7 0 000 14z" fill="#F35244"/><path d="M25.375 35l.875 1.75a4.38 4.38 0 00-1.148 4.156L25.375 42h-3.5v-1.334a6.34 6.34 0 013.5-5.666z" fill="#5F9548"/><path d="M20.246 53.375a2.51 2.51 0 01-2.406-1.783l-1.97-6.573c-.546-1.827.657-3.894 2.68-3.894.985 0 1.893.514 2.396 1.356L22.75 45.5v5.37a2.511 2.511 0 01-2.504 2.505zm6.759 0a2.51 2.51 0 002.406-1.783l1.969-6.573c.558-1.849-.668-3.894-2.68-3.894-.984 0-1.892.514-2.395 1.356L24.5 45.5v5.37a2.511 2.511 0 002.505 2.505z" fill="#FA9F0C"/><path d="M23.625 41.125a2.619 2.619 0 012.625 2.625v7a2.619 2.619 0 01-2.625 2.625A2.619 2.619 0 0121 50.75v-7a2.619 2.619 0 012.625-2.625z" fill="#FFB531"/><path d="M48.388 3.117c-1.62-1.301-3.84-1.695-5.95-1.083-2.057.602-3.599 2.057-4.233 3.97l-3.533 10.61-.416-.613-1.465.974v-3.533l2.428-1.619-.974-1.454-1.465.973V7.328h-1.75v4.003l-1.455-.973-.973 1.454 2.428 1.62v3.532l-1.455-.973-.973 1.454 1.345.897-1.083.722-2.144-1.422a.839.839 0 00-.306-.131c.066-.164.153-.328.252-.481a3.156 3.156 0 00.01-3.424c-.612-.93-.59-2.319.044-3.248.274-.394 1.39-1.192 1.685-1.586.58-.766.645-1.64.71-2.406.045-.602.088-1.127.35-1.532a2.884 2.884 0 014.704-.251c.47.59.514 1.181.569 1.98.022.273.043.568.076.874l1.74-.218a9.689 9.689 0 01-.066-.777c-.066-.951-.143-1.925-.941-2.942a4.64 4.64 0 00-6.508-.777 4.704 4.704 0 00-1.06 1.17c-.482.766-.548 1.598-.613 2.32a6.202 6.202 0 01-.044.47 4.789 4.789 0 00-1.794-.733 1.433 1.433 0 01-1.126-.963 4.672 4.672 0 00-2.33-2.745 4.572 4.572 0 00-3.555-.306c-1.739.58-3.008 2.21-3.16 4.08-.055.71.12 1.334.295 1.892a4.832 4.832 0 00-3.829-2.297l.033-3.883-1.75-.01-.021 2.526-1.05-2.69-1.597.666 1.05 2.69-1.729-1.837-1.268 1.193 2.658 2.843a4.78 4.78 0 00-.82 5.557l1.815 3.5 1.553-.81-1.816-3.5a3.059 3.059 0 015.425-2.822c.099.197.175.394.241.613l.033.11-2.822 1.104.634 1.63 2.647-1.028v.01a4.518 4.518 0 00-.098 1.914l-1.903.744.634 1.63 1.881-.733c.438.733 1.192 1.411 1.192 1.411l-2.439.952.285.71-1.455.974-2.144-1.422a.869.869 0 00-1.356.722V36.75h1.75V20.005l1.269.842a.876.876 0 00.973 0l2.144-1.422 2.144 1.422a.876.876 0 00.973 0l2.144-1.422 2.144 1.422a.876.876 0 00.973 0l2.144-1.422 2.144 1.422a.876.876 0 00.973 0l2.144-1.422 2.144 1.422a.876.876 0 00.973 0l1.269-.842V49h-3.5v1.75h14.875a.878.878 0 00.875-.875v-31.5a.868.868 0 00-.318-.667l2.593-7.766c.754-2.472-.055-5.195-2.078-6.825zM25.233 14.591c.076.12.131.251.164.393l-.602.886-1.334-3.281 1.17-1.728c-.306 1.258-.109 2.658.602 3.73zm-6.103 3.992c.23-.93.044-1.903-.492-2.69-.515-.745-1.335-1.259-1.75-2.068a2.472 2.472 0 01-.252-1.4c.131-1.072.94-1.969 1.061-3.04.088-.788-.23-1.554-.394-2.33-.383-1.718.7-3.457 2.549-3.544.896-.033 1.75.35 2.318 1.039.503.623.733 1.444 1.236 2.078.372.47.875.81 1.444.974.558.164 1.214.185 1.586.634a4.886 4.886 0 00-1.531 1.772l-1.247-.831-.985 1.421-1.509-3.686-1.608.657 1.499 3.697-1.706-.329-.35 1.707 2.81.634 1.368 3.216-1.707-.328-.207 1.028c-.011.01-1.685 1.06-2.133 1.389zm3.04-.481l1.805.371.12.296-.47.306-1.455-.973zm11.288.524l.678-.459-.252.744-.426-.285zm4.167 1.379l1.269.842a.876.876 0 00.973 0l1.269-.842v24.248l-3.5 3.5V20.005h-.01zm8.75 0v27.748l-3.5-3.5V20.005l1.269.842a.876.876 0 00.973 0l1.258-.842zM42 45.86L45.14 49h-6.28L42 45.86zm6.738-36.477l-2.975 8.925-1.138.755-2.144-1.422a.876.876 0 00-.973 0l-2.144 1.422s-2.187-1.455-2.21-1.466a.88.88 0 00-.896.044l-.131.088 3.73-11.178c.459-1.368 1.574-2.396 3.073-2.844 1.553-.46 3.183-.175 4.364.765a4.502 4.502 0 011.444 4.911z" fill="#000"/><path d="M40.965 8.776l5.252-.874.287 1.726-5.252.873-.287-1.725zm-1.752 5.247l5.252-.874.287 1.726-5.252.873-.287-1.725zM28.711 40.25a3.553 3.553 0 00-2.57 1.06.123.123 0 01-.033-.043l-.142-.58c0-.01 0-.01-.011-.021-.34-1.193.339-2.702.93-3.293a.884.884 0 00.164-1.006l-.875-1.75a.867.867 0 00-1.17-.394 7.163 7.163 0 00-3.982 6.443v.47a6.916 6.916 0 00-.667-.427c-1.695-.907-3.894-.339-4.9 1.258-.58.93-.733 2.188-.405 3.292l1.138 3.796a6.139 6.139 0 01-8.214 2.767 6.124 6.124 0 01-2.8-8.127l.065-.13.033 2.974 1.75-.022-.055-3.642 3.49.164.087-1.75-3.04-.142a6.076 6.076 0 016.584.142l.973-1.455a7.886 7.886 0 00-6.694-.995l.372-.875-1.608-.689-1.203 2.8a4.76 4.76 0 00-.273.219l-2.669-2.669-1.236 1.236 2.69 2.69-.163.23-2.866 1.225.69 1.608 1.005-.437c-1.214 4.178 1.193 8.542 5.37 9.756a7.881 7.881 0 007.766-2.002 8.53 8.53 0 00.591-.667l.175.569a3.374 3.374 0 004.922 1.958 3.51 3.51 0 003.412 0 3.385 3.385 0 004.922-1.97l1.969-6.573c.12-.437.175-.896.153-1.356a3.676 3.676 0 00-3.675-3.642zm-3.697-4.014l.197.394c-.689.951-1.181 2.34-1.094 3.653-.251-.044-.94-.077-1.356.076a5.433 5.433 0 012.253-4.123zM18.681 51.34l-1.968-6.574c-.186-.623-.099-1.367.207-1.86.504-.809 1.718-1.115 2.593-.644.415.218.58.371.743.58-.076.294-.12.6-.12.907v7c0 .602.153 1.192.449 1.717a1.63 1.63 0 01-1.904-1.126zm3.194-.591v-7c0-.962.788-1.75 1.75-1.75.963 0 1.75.788 1.75 1.75v7c0 .962-.787 1.75-1.75 1.75-.962 0-1.75-.788-1.75-1.75zm8.674-5.983l-1.97 6.574a1.635 1.635 0 01-1.902 1.126 3.499 3.499 0 00.448-1.717v-7a3.26 3.26 0 00-.098-.798c.23-.35.754-.952 1.673-.952 1.061 0 1.914.864 1.914 1.914.022.284 0 .58-.065.853z" fill="#000"/><path d="M75.34 29.78c-1.419 0-2.744-.261-3.976-.784a10.393 10.393 0 01-3.248-2.156 10.652 10.652 0 01-2.212-3.22c-.523-1.213-.784-2.52-.784-3.92s.261-2.707.784-3.92a10.304 10.304 0 012.212-3.192 10.159 10.159 0 013.248-2.184c1.232-.523 2.557-.784 3.976-.784.877 0 1.727.093 2.548.28a8.887 8.887 0 012.268.84c.28.15.485.355.616.616.15.243.224.495.224.756 0 .448-.15.85-.448 1.204a1.433 1.433 0 01-1.148.532 2.2 2.2 0 01-.476-.056 2.185 2.185 0 01-.448-.168 7.66 7.66 0 00-3.136-.644 6.267 6.267 0 00-3.332.924 6.769 6.769 0 00-2.38 2.436c-.579 1.008-.868 2.128-.868 3.36 0 1.213.29 2.333.868 3.36a7.002 7.002 0 002.38 2.464 6.415 6.415 0 003.332.896c.56 0 1.176-.056 1.848-.168.672-.112 1.223-.261 1.652-.448l-.252.84v-4.788l.476.42h-3.108a1.73 1.73 0 01-1.232-.476c-.317-.317-.476-.719-.476-1.204s.159-.887.476-1.204a1.728 1.728 0 011.232-.476h4.592c.485 0 .887.168 1.204.504.317.317.476.719.476 1.204v5.936c0 .373-.093.681-.28.924a2.2 2.2 0 01-.588.588c-.859.523-1.801.943-2.828 1.26a11.178 11.178 0 01-3.192.448zm11.656-.28c-.485 0-.887-.159-1.204-.476a1.728 1.728 0 01-.476-1.232V16.228c0-.485.159-.887.476-1.204.317-.336.719-.504 1.204-.504s.887.168 1.204.504c.317.317.476.719.476 1.204v2.632l-.196-1.876c.205-.448.467-.84.784-1.176.336-.355.71-.644 1.12-.868.41-.243.85-.42 1.316-.532a5.98 5.98 0 011.4-.168c.56 0 1.027.159 1.4.476.392.317.588.69.588 1.12 0 .616-.159 1.064-.476 1.344-.317.261-.663.392-1.036.392-.355 0-.681-.065-.98-.196a2.295 2.295 0 00-.98-.196c-.336 0-.681.084-1.036.252-.336.15-.653.392-.952.728-.28.336-.513.756-.7 1.26-.168.485-.252 1.064-.252 1.736v6.636c0 .485-.159.896-.476 1.232-.317.317-.719.476-1.204.476zm24.364-7.476c0 1.53-.346 2.884-1.036 4.06a7.236 7.236 0 01-2.744 2.716c-1.139.653-2.418.98-3.836.98-1.419 0-2.707-.327-3.864-.98a7.505 7.505 0 01-2.744-2.716c-.672-1.176-1.008-2.53-1.008-4.06 0-1.53.336-2.875 1.008-4.032.69-1.176 1.605-2.09 2.744-2.744 1.157-.672 2.445-1.008 3.864-1.008 1.418 0 2.697.336 3.836 1.008a7.178 7.178 0 012.744 2.744c.69 1.157 1.036 2.501 1.036 4.032zm-3.36 0c0-.952-.196-1.773-.588-2.464a4.122 4.122 0 00-1.54-1.652 3.969 3.969 0 00-2.128-.588c-.784 0-1.503.196-2.156.588-.635.392-1.148.943-1.54 1.652-.374.69-.56 1.512-.56 2.464 0 .933.186 1.755.56 2.464.392.69.905 1.232 1.54 1.624a4.111 4.111 0 002.156.588c.784 0 1.493-.196 2.128-.588a4.169 4.169 0 001.54-1.624c.392-.71.588-1.53.588-2.464zm12.964-7.784c1.064 0 1.988.112 2.772.336.803.224 1.419.541 1.848.952.448.392.672.868.672 1.428 0 .373-.112.728-.336 1.064-.224.317-.55.476-.98.476-.298 0-.55-.037-.756-.112a2.403 2.403 0 01-.504-.336 2.912 2.912 0 00-.532-.364c-.186-.112-.476-.196-.868-.252-.373-.075-.653-.112-.84-.112-.952 0-1.764.205-2.436.616-.653.41-1.157.97-1.512 1.68-.354.69-.532 1.493-.532 2.408 0 .896.178 1.699.532 2.408a4.46 4.46 0 001.512 1.652c.654.41 1.4.616 2.24.616.467 0 .868-.028 1.204-.084.336-.056.616-.14.84-.252a5.03 5.03 0 00.7-.476c.206-.168.514-.252.924-.252.486 0 .859.159 1.12.476.262.299.392.672.392 1.12 0 .467-.261.896-.784 1.288-.522.373-1.213.681-2.072.924-.84.224-1.754.336-2.744.336-1.474 0-2.753-.336-3.836-1.008a7.04 7.04 0 01-2.52-2.8c-.578-1.176-.868-2.492-.868-3.948 0-1.53.308-2.875.924-4.032.635-1.176 1.503-2.09 2.604-2.744 1.12-.672 2.399-1.008 3.836-1.008zm14.939 15.54c-1.586 0-2.968-.327-4.144-.98a7.091 7.091 0 01-2.688-2.716c-.616-1.139-.924-2.427-.924-3.864 0-1.68.336-3.108 1.008-4.284.691-1.195 1.587-2.11 2.688-2.744a6.903 6.903 0 013.5-.952c.952 0 1.848.196 2.688.588a7.217 7.217 0 012.268 1.624 7.43 7.43 0 011.54 2.352c.392.896.588 1.848.588 2.856a1.436 1.436 0 01-.532 1.092c-.336.28-.728.42-1.176.42h-10.696l-.84-2.8h10.276l-.616.56v-.756a2.503 2.503 0 00-.588-1.456 3.45 3.45 0 00-1.288-1.008 3.476 3.476 0 00-1.624-.392 5.31 5.31 0 00-1.568.224c-.485.15-.905.401-1.26.756-.354.355-.634.83-.84 1.428-.205.597-.308 1.353-.308 2.268 0 1.008.206 1.867.616 2.576.43.69.971 1.223 1.624 1.596a4.497 4.497 0 002.128.532c.691 0 1.242-.056 1.652-.168.411-.112.738-.243.98-.392.262-.168.495-.308.7-.42.336-.168.654-.252.952-.252.411 0 .747.14 1.008.42.28.28.42.607.42.98 0 .504-.261.961-.784 1.372-.485.41-1.166.775-2.044 1.092a8.366 8.366 0 01-2.716.448zm20.439-15.26c.486 0 .887.168 1.204.504.318.317.476.719.476 1.204v11.9c0 1.717-.326 3.08-.98 4.088-.634 1.027-1.493 1.764-2.576 2.212-1.082.448-2.296.672-3.64.672a13.88 13.88 0 01-1.904-.14c-.672-.093-1.222-.233-1.652-.42-.56-.243-.952-.55-1.176-.924-.205-.355-.242-.737-.112-1.148.168-.541.439-.915.812-1.12a1.433 1.433 0 011.176-.056c.299.093.691.233 1.176.42.486.205 1.046.308 1.68.308.859 0 1.568-.121 2.128-.364a2.339 2.339 0 001.288-1.176c.299-.541.448-1.288.448-2.24v-1.876l.588.672a4.953 4.953 0 01-1.204 1.54 4.815 4.815 0 01-1.68.896c-.653.205-1.4.308-2.24.308-.989 0-1.857-.224-2.604-.672a4.823 4.823 0 01-1.708-1.904c-.41-.821-.616-1.755-.616-2.8v-8.176c0-.485.159-.887.476-1.204.318-.336.719-.504 1.204-.504.486 0 .887.168 1.204.504.318.317.476.719.476 1.204v7.168c0 1.213.262 2.072.784 2.576.542.485 1.288.728 2.24.728.654 0 1.204-.121 1.652-.364a2.614 2.614 0 001.036-1.12c.243-.504.364-1.11.364-1.82v-7.168c0-.485.159-.887.476-1.204.318-.336.719-.504 1.204-.504zm8.482 13.272c0 .485-.159.896-.476 1.232-.317.317-.719.476-1.204.476s-.887-.159-1.204-.476a1.729 1.729 0 01-.476-1.232V16.228c0-.485.159-.887.476-1.204.317-.336.719-.504 1.204-.504s.887.168 1.204.504c.317.317.476.719.476 1.204v11.564zM163.116 12.7c-.635 0-1.083-.103-1.344-.308-.261-.205-.392-.57-.392-1.092v-.532c0-.541.14-.905.42-1.092.299-.205.747-.308 1.344-.308.653 0 1.111.103 1.372.308.261.205.392.57.392 1.092v.532c0 .541-.14.915-.42 1.12-.28.187-.737.28-1.372.28zm4.293 14.476c-.187-.261-.271-.597-.252-1.008.019-.41.261-.765.728-1.064a1.45 1.45 0 01.952-.224c.336.019.663.187.98.504a6.607 6.607 0 001.708 1.26c.597.299 1.344.448 2.24.448.28-.019.588-.056.924-.112a1.85 1.85 0 00.868-.448c.261-.243.392-.607.392-1.092 0-.41-.14-.737-.42-.98-.28-.243-.653-.448-1.12-.616a16.246 16.246 0 00-1.512-.476 47.817 47.817 0 01-1.792-.56 7.926 7.926 0 01-1.652-.784 3.965 3.965 0 01-1.232-1.316c-.317-.541-.476-1.223-.476-2.044 0-.933.261-1.727.784-2.38a5.145 5.145 0 012.016-1.512 6.698 6.698 0 012.632-.532 7.95 7.95 0 011.82.224c.635.13 1.241.355 1.82.672.579.299 1.064.7 1.456 1.204.205.28.327.616.364 1.008.037.392-.14.747-.532 1.064-.28.224-.607.327-.98.308-.373-.037-.681-.168-.924-.392-.317-.41-.747-.737-1.288-.98-.523-.243-1.129-.364-1.82-.364-.28 0-.588.037-.924.112a1.638 1.638 0 00-.84.42c-.243.205-.364.541-.364 1.008 0 .43.14.775.42 1.036.28.243.653.448 1.12.616.485.15.999.299 1.54.448.56.15 1.129.327 1.708.532a6.747 6.747 0 011.596.812 3.82 3.82 0 011.176 1.316c.299.523.448 1.195.448 2.016 0 .952-.28 1.764-.84 2.436a5.442 5.442 0 01-2.1 1.54 6.88 6.88 0 01-2.576.504c-1.101 0-2.203-.187-3.304-.56-1.101-.392-2.016-1.073-2.744-2.044zm22.244-12.936c1.344 0 2.361.29 3.052.868.709.579 1.195 1.353 1.456 2.324.261.952.392 2.016.392 3.192v7.168c0 .485-.159.896-.476 1.232-.317.317-.719.476-1.204.476s-.887-.159-1.204-.476a1.729 1.729 0 01-.476-1.232v-7.168c0-.616-.075-1.167-.224-1.652a2.281 2.281 0 00-.812-1.204c-.392-.299-.952-.448-1.68-.448-.709 0-1.316.15-1.82.448-.504.299-.887.7-1.148 1.204-.243.485-.364 1.036-.364 1.652v7.168c0 .485-.159.896-.476 1.232-.317.317-.719.476-1.204.476s-.887-.159-1.204-.476a1.729 1.729 0 01-.476-1.232V10.488c0-.485.159-.887.476-1.204.317-.336.719-.504 1.204-.504s.887.168 1.204.504c.317.317.476.719.476 1.204v6.944l-.42-.084c.168-.317.401-.653.7-1.008a5.825 5.825 0 011.092-1.036c.429-.317.905-.57 1.428-.756a4.633 4.633 0 011.708-.308z" fill="#3BB77E"/><path d="M69.698 50.64a5.236 5.236 0 01-2.002-.378 5.243 5.243 0 01-1.61-1.078 5.071 5.071 0 01-1.078-1.596 5.2 5.2 0 01-.378-1.988c0-.719.126-1.381.378-1.988a5.03 5.03 0 011.078-1.61 5.043 5.043 0 011.61-1.064 5.236 5.236 0 012.002-.378c.476 0 .933.056 1.372.168.448.103.854.266 1.218.49a.4.4 0 01.196.196.54.54 0 01.07.266.553.553 0 01-.168.406.478.478 0 01-.532.14 2.812 2.812 0 00-.154-.056 4.324 4.324 0 00-.938-.35 3.96 3.96 0 00-1.064-.14c-.737 0-1.4.173-1.988.518a3.796 3.796 0 00-1.372 1.4c-.336.588-.504 1.255-.504 2.002 0 .737.168 1.405.504 2.002a3.796 3.796 0 001.372 1.4c.588.345 1.25.518 1.988.518a4.52 4.52 0 001.148-.154 4.173 4.173 0 001.022-.392l-.098.336v-2.954l.224.196h-2.142a.58.58 0 01-.406-.154.58.58 0 01-.154-.406.553.553 0 01.56-.56H72.4c.168 0 .303.056.406.168a.58.58 0 01.154.406v3.234c0 .112-.028.21-.084.294a.602.602 0 01-.196.21c-.42.27-.887.49-1.4.658a5.236 5.236 0 01-1.582.238zm5.912-.14a.687.687 0 01-.462-.168.532.532 0 01-.182-.406V41.26a.553.553 0 01.56-.56h3.864c.523 0 .994.121 1.414.364.42.233.752.56.994.98.252.41.378.887.378 1.428 0 .392-.074.76-.224 1.106-.149.336-.354.63-.616.882a2.77 2.77 0 01-.896.56l-.308-.224c.318.075.602.21.854.406a2.207 2.207 0 01.868 1.75c.019.345.042.62.07.826.028.205.07.369.126.49.056.112.136.2.238.266a.56.56 0 01.252.336.432.432 0 01-.07.406.47.47 0 01-.238.182.865.865 0 01-.308.028.595.595 0 01-.266-.084 1.697 1.697 0 01-.434-.364c-.14-.168-.256-.406-.35-.714-.093-.308-.14-.728-.14-1.26 0-.299-.046-.546-.14-.742a1.28 1.28 0 00-.378-.476 1.4 1.4 0 00-.532-.252 2.588 2.588 0 00-.602-.07H75.96l.168-.252v3.654a.613.613 0 01-.14.406.467.467 0 01-.378.168zm.35-4.984h3.43c.271-.019.523-.112.756-.28a1.82 1.82 0 00.588-.7 2.23 2.23 0 00.238-1.036c0-.495-.158-.905-.476-1.232-.308-.327-.7-.49-1.176-.49h-3.304l.112-.266v4.256l-.168-.252zm17.165.084c0 .719-.117 1.386-.35 2.002a4.971 4.971 0 01-.98 1.596 4.4 4.4 0 01-1.498 1.064 4.682 4.682 0 01-1.89.378 4.714 4.714 0 01-1.904-.378 4.426 4.426 0 01-1.484-1.064 4.971 4.971 0 01-.98-1.596 5.607 5.607 0 01-.35-2.002c0-.728.116-1.395.35-2.002.233-.616.56-1.148.98-1.596.42-.457.914-.812 1.484-1.064a4.717 4.717 0 011.904-.378c.68 0 1.31.126 1.89.378a4.389 4.389 0 011.498 1.064c.42.448.746.98.98 1.596.233.607.35 1.274.35 2.002zm-1.204 0c0-.765-.154-1.442-.462-2.03a3.485 3.485 0 00-1.232-1.386c-.523-.336-1.13-.504-1.82-.504-.691 0-1.302.168-1.834.504a3.485 3.485 0 00-1.232 1.386c-.3.588-.448 1.265-.448 2.03 0 .756.149 1.433.448 2.03.298.588.709 1.05 1.232 1.386.532.336 1.143.504 1.834.504.69 0 1.297-.168 1.82-.504a3.485 3.485 0 001.232-1.386c.308-.597.462-1.274.462-2.03zm10.117-4.256c.159.084.247.21.266.378a.563.563 0 01-.126.462.416.416 0 01-.322.196.748.748 0 01-.392-.084 4.111 4.111 0 00-.994-.434 3.699 3.699 0 00-1.12-.168 3.8 3.8 0 00-1.512.294 3.471 3.471 0 00-1.19.798 3.66 3.66 0 00-.784 1.232 4.298 4.298 0 00-.28 1.582c0 .616.098 1.167.294 1.652.196.485.462.9.798 1.246a3.57 3.57 0 001.19.77 4.07 4.07 0 001.484.266 3.958 3.958 0 002.114-.602.654.654 0 01.392-.07.524.524 0 01.336.196c.112.15.154.308.126.476a.465.465 0 01-.266.35 5.74 5.74 0 01-.798.392c-.299.112-.611.2-.938.266a5.187 5.187 0 01-2.87-.252 4.767 4.767 0 01-1.582-1.008 4.89 4.89 0 01-1.092-1.582c-.261-.625-.392-1.325-.392-2.1 0-.728.126-1.395.378-2.002a4.833 4.833 0 011.05-1.582 5.037 5.037 0 011.582-1.05 5.058 5.058 0 011.96-.378c.485 0 .957.065 1.414.196.467.13.891.317 1.274.56zm2.527-.644h4.984c.159 0 .294.051.406.154a.508.508 0 01.168.392c0 .159-.056.29-.168.392a.613.613 0 01-.406.14h-4.508l.126-.238v3.542l-.14-.154h3.892c.159 0 .294.051.406.154a.508.508 0 01.168.392c0 .159-.056.29-.168.392a.613.613 0 01-.406.14h-3.85l.098-.126v3.626l-.084-.098h4.466c.159 0 .294.056.406.168a.522.522 0 010 .77.579.579 0 01-.406.154h-4.984a.554.554 0 01-.406-.168.582.582 0 01-.154-.406V41.26c0-.159.052-.29.154-.392a.554.554 0 01.406-.168zm8.069 9.8a.685.685 0 01-.462-.168.53.53 0 01-.182-.406V41.26a.553.553 0 01.56-.56h3.864c.522 0 .994.121 1.414.364.42.233.751.56.994.98.252.41.378.887.378 1.428 0 .392-.075.76-.224 1.106a2.8 2.8 0 01-.616.882c-.262.243-.56.43-.896.56l-.308-.224c.317.075.602.21.854.406.252.187.457.43.616.728.158.29.242.63.252 1.022.018.345.042.62.07.826.028.205.07.369.126.49.056.112.135.2.238.266.13.084.214.196.252.336a.434.434 0 01-.07.406.472.472 0 01-.238.182.867.867 0 01-.308.028.591.591 0 01-.266-.084 1.687 1.687 0 01-.434-.364c-.14-.168-.257-.406-.35-.714-.094-.308-.14-.728-.14-1.26 0-.299-.047-.546-.14-.742a1.293 1.293 0 00-.378-.476 1.403 1.403 0 00-.532-.252 2.59 2.59 0 00-.602-.07h-3.122l.168-.252v3.654a.615.615 0 01-.14.406.468.468 0 01-.378.168zm.35-4.984h3.43c.27-.019.522-.112.756-.28a1.83 1.83 0 00.588-.7c.158-.308.238-.653.238-1.036 0-.495-.159-.905-.476-1.232-.308-.327-.7-.49-1.176-.49h-3.304l.112-.266v4.256l-.168-.252zm14.157-4.872c.159 0 .29.06.392.182a.537.537 0 01.168.392.653.653 0 01-.028.182.417.417 0 01-.07.168l-3.248 4.522.182-.686v4.522a.553.553 0 01-.168.406.491.491 0 01-.378.168.57.57 0 01-.42-.168.582.582 0 01-.154-.406v-4.41l.098.364-3.15-4.256a1.041 1.041 0 01-.126-.21.903.903 0 01-.028-.21.48.48 0 01.196-.392.607.607 0 01.392-.168c.187 0 .341.089.462.266l2.898 3.976-.266-.042 2.786-3.92c.122-.187.276-.28.462-.28z" fill="#ADADAD"/></svg>