<svg width="52" height="52" fill="none" xmlns="http://www.w3.org/2000/svg"><g clip-path="url(#clip0_92_1167)"><path d="M26.356 24.518c-1.686-.404-1.88-.565-1.88-1.565 0-1.325 1.948-1.98 2.742-.913a1.524 1.524 0 102.437-1.83c-.541-.722-1.297-1.233-2.132-1.532V16.86a1.523 1.523 0 10-3.046 0v1.804c-1.77.631-3.047 2.307-3.047 4.29 0 3.516 2.637 4.15 4.214 4.529 1.686.404 1.88.565 1.88 1.565a1.524 1.524 0 01-2.742.913 1.525 1.525 0 00-2.437 1.83c.541.722 1.297 1.233 2.132 1.532v1.819a1.523 1.523 0 103.046 0v-1.804c1.77-.631 3.047-2.307 3.047-4.29 0-3.516-2.637-4.15-4.214-4.529z" fill="url(#paint0_linear_92_1167)"/><path d="M52 26.102C52 13.124 42.32 2.082 29.482.417a1.501 1.501 0 00-1.674 1.141L26.31 7.552c-.226.9.402 1.802 1.342 1.887 8.67.77 15.207 7.934 15.207 16.663a16.759 16.759 0 01-7.452 13.93l-1.993-2.656c-.761-1.02-2.387-.706-2.696.544l-3.047 12.188A1.523 1.523 0 0029.148 52h12.188c1.257 0 1.969-1.438 1.218-2.437l-1.647-2.197C47.885 42.519 52 34.687 52 26.102zm-27.652 16.46c-8.67-.772-15.207-7.935-15.207-16.664a16.759 16.759 0 017.452-13.93l1.993 2.656c.755 1.008 2.384.716 2.696-.544l3.047-12.188A1.523 1.523 0 0022.852 0H10.664C9.407 0 8.695 1.438 9.446 2.437l1.647 2.197C4.115 9.481 0 17.313 0 25.898c0 12.978 9.68 24.02 22.518 25.685a1.52 1.52 0 001.674-1.141l1.498-5.995a1.523 1.523 0 00-1.342-1.886z" fill="url(#paint1_linear_92_1167)"/></g><defs><linearGradient id="paint0_linear_92_1167" x1="26" y1="36.664" x2="26" y2="15.336" gradientUnits="userSpaceOnUse"><stop stop-color="#C3FFE8"/><stop offset=".997" stop-color="#F0FFF4"/></linearGradient><linearGradient id="paint1_linear_92_1167" x1="26" y1="52" x2="26" y2="0" gradientUnits="userSpaceOnUse"><stop stop-color="#00B59C"/><stop offset="1" stop-color="#9CFFAC"/></linearGradient><clipPath id="clip0_92_1167"><path fill="#fff" d="M0 0h52v52H0z"/></clipPath></defs></svg>