<svg width="20" height="20" fill="none" xmlns="http://www.w3.org/2000/svg"><path fill-rule="evenodd" clip-rule="evenodd" d="M9.488 1.009a.833.833 0 011.023 0l7.5 5.833c.203.158.322.4.322.658v9.167a2.5 2.5 0 01-2.5 2.5H4.167a2.5 2.5 0 01-2.5-2.5V7.5c0-.257.118-.5.321-.658l7.5-5.833zM3.333 7.907v8.76a.833.833 0 00.833.833h11.667a.833.833 0 00.833-.833v-8.76L10 2.722 3.333 7.907z" fill="#3BB77E"/><path fill-rule="evenodd" clip-rule="evenodd" d="M6.667 10c0-.46.373-.833.833-.833h5c.46 0 .833.373.833.833v8.333a.833.833 0 11-1.667 0v-7.5H8.333v7.5a.833.833 0 11-1.667 0V10z" fill="#3BB77E"/></svg>