<svg width="147" height="44" fill="none" xmlns="http://www.w3.org/2000/svg"><path d="M13.284 23.127a1.357 1.357 0 01-1.698-.64l-5.942-11.44a2.744 2.744 0 011.188-3.702c.084-.039.16-.077.244-.115 1.531-.617 3.215.282 3.641 1.836l.008.023 3.374 12.423a1.366 1.366 0 01-.815 1.615z" fill="#F98500"/><path d="M12.964 17.361l-1.683.663a.626.626 0 01-.792-.35.613.613 0 01.342-.793l1.806-.708.327 1.188zm.656 2.384l-1.448.541a.636.636 0 01-.792-.35.61.61 0 01.35-.793l1.57-.586.32 1.188z" fill="#FA6D00"/><path d="M20.452 11.938a1.57 1.57 0 01-.655-1.585 2.624 2.624 0 00-2.057-3.085c-.015 0-.038-.007-.053-.007a1.6 1.6 0 01-1.257-1.09 3.714 3.714 0 00-.16-.403 2.615 2.615 0 00-3.511-1.173 2.614 2.614 0 00-1.257 3.328c.266.655.396 1.25-.054 1.882a2.614 2.614 0 00.625 3.648c.008.008.023.016.03.023.51.358.755.983.633 1.592a2.622 2.622 0 005.05 1.364 2.622 2.622 0 003.511-1.173 2.624 2.624 0 00-.845-3.322z" fill="#598C44"/><path d="M26.393 14.032a1.571 1.571 0 01-.015-1.713 2.626 2.626 0 00-.739-3.634c-.015-.008-.03-.023-.045-.03-.747-.473-.694-1.143-.754-1.912a2.625 2.625 0 00-2.811-2.415 2.624 2.624 0 00-2.422 2.613c0 .708-.107 1.302-.755 1.721a2.614 2.614 0 00-.792 3.618c.008.008.016.023.023.03a1.557 1.557 0 01-.015 1.715 2.628 2.628 0 00.77 3.626 2.614 2.614 0 003.389-.465 2.624 2.624 0 003.694.236 2.624 2.624 0 00.473-3.39z" fill="#5F9548"/><path d="M30.469 21.39l-7.313-2.437 4.03-12.08c.487-1.456 1.973-2.583 3.519-2.545.96.023 1.858.206 2.613.815a3.716 3.716 0 011.203 4.083L30.47 21.39z" fill="#FFB531"/><path d="M25.594 15.297v21.937H7.312V15.297l1.829 1.219 1.828-1.22 1.828 1.22 1.828-1.22 1.828 1.22 1.828-1.22 1.828 1.22 1.828-1.22 1.829 1.22 1.828-1.22z" fill="#FFB531"/><path d="M25.594 20.347v16.887H7.312V33.54c6.711-2.255 13.361-6.36 18.282-13.193z" fill="#FCAC1F"/><path d="M32.906 15.297v21.937h-7.312V15.297l1.828 1.219 1.828-1.22 1.828 1.22 1.828-1.22z" fill="#F98500"/><path d="M7.427 39.672a4.875 4.875 0 100-9.75 4.875 4.875 0 000 9.75z" fill="#F35244"/><path d="M17.672 26.875l.61 1.219a3.05 3.05 0 00-.8 2.894l.19.762h-2.438v-.93c0-1.668.945-3.198 2.438-3.945z" fill="#5F9548"/><path d="M14.1 39.672a1.75 1.75 0 01-1.677-1.242l-1.37-4.578c-.382-1.272.456-2.711 1.866-2.711a1.94 1.94 0 011.668.944l1.257 2.102v3.74a1.75 1.75 0 01-1.745 1.745zm4.707 0c.77 0 1.455-.503 1.676-1.242l1.37-4.578c.39-1.287-.464-2.711-1.866-2.711a1.94 1.94 0 00-1.668.944l-1.256 2.102v3.74c0 .96.784 1.745 1.744 1.745z" fill="#FA9F0C"/><path d="M16.453 31.14c1.013 0 1.828.816 1.828 1.829v4.875a1.824 1.824 0 01-1.828 1.828 1.824 1.824 0 01-1.828-1.828v-4.875c0-1.013.815-1.828 1.828-1.828z" fill="#FFB531"/><path d="M33.698 4.67c-1.127-.906-2.673-1.18-4.143-.753-1.432.419-2.506 1.432-2.948 2.765l-2.46 7.388-.29-.426-1.02.678v-2.46l1.69-1.128-.678-1.013-1.02.678V7.603h-1.22v2.788l-1.012-.678-.678 1.014 1.69 1.127v2.46l-1.012-.678-.678 1.013.937.625-.754.503-1.493-.99a.586.586 0 00-.214-.092c.046-.114.107-.229.176-.335a2.198 2.198 0 00.007-2.384c-.426-.648-.411-1.615.03-2.263.191-.274.968-.83 1.174-1.104.404-.533.45-1.143.495-1.676.03-.419.06-.784.244-1.066a2.009 2.009 0 013.275-.176c.328.412.358.823.396 1.38.015.19.03.395.053.609l1.211-.153a6.819 6.819 0 01-.045-.54c-.046-.663-.1-1.341-.655-2.05a3.232 3.232 0 00-5.271.275c-.335.533-.381 1.112-.427 1.614-.008.115-.015.221-.03.328a3.334 3.334 0 00-1.25-.51.998.998 0 01-.784-.67A3.254 3.254 0 0015.37 4.06a3.184 3.184 0 00-2.475-.213c-1.211.404-2.095 1.539-2.202 2.841-.038.495.084.93.206 1.318a3.365 3.365 0 00-2.666-1.6l.023-2.704-1.219-.007-.015 1.76-.731-1.874-1.112.464.73 1.874-1.203-1.28-.883.83 1.85 1.981a3.33 3.33 0 00-.57 3.87l1.264 2.437 1.082-.564-1.265-2.437a2.13 2.13 0 013.778-1.965c.069.137.122.274.168.426l.023.076-1.966.77.442 1.135 1.843-.716v.007a3.146 3.146 0 00-.068 1.333l-1.325.518.441 1.135 1.31-.51c.305.51.83.982.83.982l-1.698.663.198.495-1.013.678-1.493-.99a.605.605 0 00-.944.503v12.797h1.218V16.432l.884.586a.61.61 0 00.678 0l1.493-.99 1.493.99a.61.61 0 00.678 0l1.493-.99 1.493.99a.61.61 0 00.678 0l1.493-.99 1.493.99a.61.61 0 00.678 0l1.492-.99 1.493.99a.61.61 0 00.678 0l.884-.586v20.193h-2.438v1.219h10.36c.335 0 .61-.275.61-.61V15.297a.605.605 0 00-.222-.465l1.806-5.408a4.45 4.45 0 00-1.448-4.753zm-16.125 7.991a.871.871 0 01.114.274l-.419.617-.93-2.285.816-1.203c-.213.876-.076 1.85.419 2.597zm-4.25 2.78c.16-.647.03-1.325-.343-1.873-.358-.518-.93-.876-1.22-1.44a1.722 1.722 0 01-.174-.975c.091-.747.655-1.371.739-2.118.06-.548-.16-1.081-.275-1.622-.266-1.196.488-2.407 1.775-2.468a1.994 1.994 0 011.615.724c.35.434.51 1.005.86 1.447.26.327.61.564 1.006.678.389.114.846.13 1.105.442-.45.32-.815.739-1.067 1.234l-.868-.58-.686.991-1.05-2.567-1.12.457 1.043 2.575-1.188-.229-.244 1.188 1.958.442.952 2.24-1.189-.229-.144.716c-.008.008-1.173.739-1.486.967zm2.117-.335l1.257.26.084.205-.328.213-1.013-.678zm7.86.366l.473-.32-.175.518-.297-.198zm2.903.96l.884.586a.61.61 0 00.678 0l.883-.586v16.887l-2.437 2.438V16.432h-.008zm6.094 0v19.325l-2.438-2.438V16.432l.884.586a.61.61 0 00.678 0l.876-.586zM29.25 34.439l2.186 2.186h-4.372l2.186-2.186zm4.692-25.404l-2.072 6.216-.792.526-1.493-.99a.61.61 0 00-.678 0l-1.493.99s-1.523-1.013-1.539-1.021a.612.612 0 00-.624.03l-.091.061 2.597-7.784c.32-.953 1.097-1.669 2.14-1.98 1.082-.32 2.217-.123 3.04.532a3.135 3.135 0 011.005 3.42z" fill="#000"/><path d="M28.529 8.612l3.657-.609.2 1.202-3.657.608-.2-1.201zm-1.219 3.654l3.657-.608.2 1.201-3.658.609-.2-1.202zm-7.315 18.265a2.474 2.474 0 00-1.79.74c-.008-.009-.015-.016-.023-.031l-.099-.404c0-.008 0-.008-.008-.015-.236-.83.236-1.882.648-2.293a.615.615 0 00.114-.7l-.61-1.22a.604.604 0 00-.814-.274 4.989 4.989 0 00-2.773 4.487v.327a4.82 4.82 0 00-.465-.297c-1.18-.632-2.711-.236-3.412.876-.404.648-.51 1.524-.282 2.293l.792 2.643a4.275 4.275 0 01-5.72 1.927 4.265 4.265 0 01-1.95-5.66l.045-.09.023 2.071 1.219-.015-.038-2.537 2.43.115.06-1.22-2.117-.098a4.232 4.232 0 014.586.099l.678-1.013a5.492 5.492 0 00-4.662-.693l.259-.61-1.12-.48-.838 1.95c-.06.046-.13.1-.19.153l-1.859-1.859-.86.86 1.873 1.875-.114.16-1.996.853.48 1.12.701-.305a5.483 5.483 0 009.56 4.936l.121.396a2.35 2.35 0 003.428 1.363 2.443 2.443 0 002.377 0 2.357 2.357 0 003.428-1.37l1.37-4.579c.084-.304.123-.624.107-.944a2.56 2.56 0 00-2.56-2.537zm-2.575-2.795l.137.274c-.48.663-.822 1.63-.761 2.544-.175-.03-.655-.053-.945.053a3.781 3.781 0 011.57-2.871zm-4.41 10.519l-1.371-4.578c-.13-.434-.069-.952.145-1.295.35-.563 1.195-.777 1.805-.45.29.153.404.26.518.405a2.528 2.528 0 00-.084.632v4.875c0 .419.107.83.312 1.196a1.135 1.135 0 01-1.325-.785zm2.224-.411v-4.875c0-.67.549-1.219 1.219-1.219s1.219.548 1.219 1.219v4.875c0 .67-.549 1.218-1.22 1.218-.67 0-1.218-.548-1.218-1.218zm6.04-4.167l-1.37 4.578a1.139 1.139 0 01-1.326.785c.206-.366.312-.777.312-1.196v-4.875c0-.19-.022-.373-.068-.556.16-.244.526-.663 1.165-.663.74 0 1.333.602 1.333 1.333.015.198 0 .404-.045.594z" fill="#000"/><path d="M55.505 21.21a7.556 7.556 0 01-2.982-.588 7.795 7.795 0 01-2.436-1.617 7.99 7.99 0 01-1.659-2.415 7.351 7.351 0 01-.588-2.94c0-1.05.196-2.03.588-2.94a7.728 7.728 0 011.659-2.394 7.556 7.556 0 015.418-2.226c.658 0 1.295.07 1.911.21.616.14 1.183.35 1.701.63.21.112.364.266.462.462.112.182.168.371.168.567 0 .336-.112.637-.336.903a1.075 1.075 0 01-.861.399c-.112 0-.231-.014-.357-.042a1.641 1.641 0 01-.336-.126 5.744 5.744 0 00-2.352-.483 4.7 4.7 0 00-2.499.693 5.077 5.077 0 00-1.785 1.827c-.434.756-.651 1.596-.651 2.52 0 .91.217 1.75.651 2.52a5.252 5.252 0 001.785 1.848 4.811 4.811 0 002.499.672c.42 0 .882-.042 1.386-.126.504-.084.917-.196 1.239-.336l-.189.63v-3.591l.357.315h-2.331c-.364 0-.672-.119-.924-.357a1.224 1.224 0 01-.357-.903c0-.364.119-.665.357-.903.252-.238.56-.357.924-.357h3.444c.364 0 .665.126.903.378.238.238.357.539.357.903v4.452c0 .28-.07.511-.21.693a1.651 1.651 0 01-.441.441 9.396 9.396 0 01-2.121.945 8.384 8.384 0 01-2.394.336zm8.742-.21c-.364 0-.665-.119-.903-.357a1.296 1.296 0 01-.357-.924v-8.673c0-.364.12-.665.357-.903a1.19 1.19 0 01.903-.378c.364 0 .665.126.903.378.238.238.357.539.357.903v1.974l-.147-1.407c.154-.336.35-.63.588-.882.252-.266.532-.483.84-.651.308-.182.637-.315.987-.399.35-.084.7-.126 1.05-.126.42 0 .77.119 1.05.357.294.238.441.518.441.84 0 .462-.119.798-.357 1.008a1.197 1.197 0 01-.777.294c-.266 0-.51-.049-.735-.147a1.722 1.722 0 00-.735-.147c-.252 0-.51.063-.777.189-.252.112-.49.294-.714.546-.21.252-.385.567-.525.945-.126.364-.189.798-.189 1.302v4.977c0 .364-.119.672-.357.924a1.224 1.224 0 01-.903.357zm18.273-5.607c0 1.148-.26 2.163-.777 3.045a5.425 5.425 0 01-2.058 2.037c-.854.49-1.813.735-2.877.735-1.064 0-2.03-.245-2.898-.735a5.629 5.629 0 01-2.058-2.037c-.504-.882-.756-1.897-.756-3.045s.252-2.156.756-3.024a5.581 5.581 0 012.058-2.058c.868-.504 1.834-.756 2.898-.756s2.023.252 2.877.756a5.382 5.382 0 012.058 2.058c.518.868.777 1.876.777 3.024zm-2.52 0c0-.714-.147-1.33-.441-1.848a3.086 3.086 0 00-1.155-1.239 2.976 2.976 0 00-1.596-.441c-.588 0-1.127.147-1.617.441a3.291 3.291 0 00-1.155 1.239c-.28.518-.42 1.134-.42 1.848 0 .7.14 1.316.42 1.848.294.518.679.924 1.155 1.218.49.294 1.029.441 1.617.441.588 0 1.12-.147 1.596-.441.49-.294.875-.7 1.155-1.218.294-.532.44-1.148.44-1.848zm9.723-5.838c.798 0 1.491.084 2.08.252.601.168 1.063.406 1.385.714.336.294.504.651.504 1.071 0 .28-.084.546-.252.798-.168.238-.413.357-.735.357a1.67 1.67 0 01-.567-.084 1.779 1.779 0 01-.378-.252 2.212 2.212 0 00-.399-.273c-.14-.084-.357-.147-.65-.189a3.538 3.538 0 00-.63-.084c-.715 0-1.324.154-1.828.462-.49.308-.868.728-1.134 1.26-.266.518-.399 1.12-.399 1.806 0 .672.133 1.274.4 1.806.28.518.657.931 1.133 1.239.49.308 1.05.462 1.68.462.35 0 .651-.021.903-.063.252-.042.462-.105.63-.189a3.82 3.82 0 00.525-.357c.154-.126.385-.189.693-.189.364 0 .644.119.84.357.196.224.294.504.294.84 0 .35-.196.672-.588.966-.392.28-.91.511-1.554.693a7.97 7.97 0 01-2.058.252c-1.106 0-2.065-.252-2.877-.756a5.272 5.272 0 01-1.89-2.1c-.434-.882-.65-1.869-.65-2.961 0-1.148.23-2.156.692-3.024a5.22 5.22 0 011.953-2.058c.84-.504 1.8-.756 2.877-.756zm11.205 11.655c-1.19 0-2.227-.245-3.108-.735a5.315 5.315 0 01-2.016-2.037c-.463-.854-.694-1.82-.694-2.898 0-1.26.252-2.331.757-3.213.517-.896 1.19-1.582 2.015-2.058a5.177 5.177 0 012.626-.714c.714 0 1.386.147 2.016.441a5.42 5.42 0 011.701 1.218c.49.504.875 1.092 1.155 1.764.294.672.441 1.386.441 2.142a1.078 1.078 0 01-.399.819c-.252.21-.546.315-.882.315h-8.023l-.63-2.1h7.708l-.462.42v-.567a1.88 1.88 0 00-.441-1.092 2.588 2.588 0 00-.966-.756 2.608 2.608 0 00-1.218-.294c-.42 0-.813.056-1.176.168a2.253 2.253 0 00-.945.567c-.266.266-.477.623-.63 1.071-.154.448-.232 1.015-.232 1.701 0 .756.154 1.4.462 1.932.323.518.729.917 1.219 1.197a3.374 3.374 0 001.596.399c.518 0 .931-.042 1.239-.126.308-.084.553-.182.735-.294.196-.126.371-.231.525-.315.252-.126.49-.189.714-.189.308 0 .56.105.756.315.21.21.315.455.315.735 0 .378-.196.721-.588 1.029-.364.308-.875.581-1.533.819a6.278 6.278 0 01-2.037.336zm15.329-11.445c.364 0 .665.126.903.378.238.238.357.539.357.903v8.925c0 1.288-.245 2.31-.735 3.066a4.046 4.046 0 01-1.932 1.659c-.812.336-1.722.504-2.73.504-.448 0-.924-.035-1.428-.105-.504-.07-.917-.175-1.239-.315-.42-.182-.714-.413-.882-.693a1.026 1.026 0 01-.084-.861c.126-.406.329-.686.609-.84.28-.14.574-.154.882-.042.224.07.518.175.882.315.364.154.784.231 1.26.231.644 0 1.176-.091 1.596-.273.434-.168.756-.462.966-.882.224-.406.336-.966.336-1.68v-1.407l.441.504a3.726 3.726 0 01-.903 1.155 3.62 3.62 0 01-1.26.672c-.49.154-1.05.231-1.68.231-.742 0-1.393-.168-1.953-.504a3.616 3.616 0 01-1.281-1.428c-.308-.616-.462-1.316-.462-2.1v-6.132c0-.364.119-.665.357-.903.238-.252.539-.378.903-.378s.665.126.903.378c.238.238.357.539.357.903v5.376c0 .91.196 1.554.588 1.932.406.364.966.546 1.68.546.49 0 .903-.091 1.239-.273.336-.196.595-.476.777-.84.182-.378.273-.833.273-1.365v-5.376c0-.364.119-.665.357-.903.238-.252.539-.378.903-.378zm6.361 9.954c0 .364-.119.672-.357.924a1.224 1.224 0 01-.903.357c-.364 0-.665-.119-.903-.357a1.296 1.296 0 01-.357-.924v-8.673c0-.364.119-.665.357-.903.238-.252.539-.378.903-.378s.665.126.903.378c.238.238.357.539.357.903v8.673zM121.337 8.4c-.476 0-.812-.077-1.008-.231-.196-.154-.294-.427-.294-.819v-.399c0-.406.105-.679.315-.819.224-.154.56-.231 1.008-.231.49 0 .833.077 1.029.231.196.154.294.427.294.819v.399c0 .406-.105.686-.315.84-.21.14-.553.21-1.029.21zm3.22 10.857c-.14-.196-.203-.448-.189-.756.014-.308.196-.574.546-.798.224-.14.462-.196.714-.168.252.014.497.14.735.378.406.406.833.721 1.281.945.448.224 1.008.336 1.68.336a7.13 7.13 0 00.693-.084c.252-.056.469-.168.651-.336.196-.182.294-.455.294-.819 0-.308-.105-.553-.315-.735-.21-.182-.49-.336-.84-.462a12.192 12.192 0 00-1.134-.357 35.961 35.961 0 01-1.344-.42 5.939 5.939 0 01-1.239-.588 2.976 2.976 0 01-.924-.987c-.238-.406-.357-.917-.357-1.533 0-.7.196-1.295.588-1.785.392-.49.896-.868 1.512-1.134a5.025 5.025 0 011.974-.399c.434 0 .889.056 1.365.168.476.098.931.266 1.365.504.434.224.798.525 1.092.903.154.21.245.462.273.756.028.294-.105.56-.399.798-.21.168-.455.245-.735.231a1.16 1.16 0 01-.693-.294 2.466 2.466 0 00-.966-.735c-.392-.182-.847-.273-1.365-.273-.21 0-.441.028-.693.084a1.226 1.226 0 00-.63.315c-.182.154-.273.406-.273.756 0 .322.105.581.315.777.21.182.49.336.84.462.364.112.749.224 1.155.336.42.112.847.245 1.281.399a5.07 5.07 0 011.197.609c.364.252.658.581.882.987.224.392.336.896.336 1.512 0 .714-.21 1.323-.63 1.827-.42.504-.945.889-1.575 1.155a5.16 5.16 0 01-1.932.378c-.826 0-1.652-.14-2.478-.42a4.356 4.356 0 01-2.058-1.533zm16.683-9.702c1.008 0 1.771.217 2.289.651.532.434.896 1.015 1.092 1.743.196.714.294 1.512.294 2.394v5.376c0 .364-.119.672-.357.924a1.224 1.224 0 01-.903.357c-.364 0-.665-.119-.903-.357a1.296 1.296 0 01-.357-.924v-5.376a4.21 4.21 0 00-.168-1.239 1.712 1.712 0 00-.609-.903c-.294-.224-.714-.336-1.26-.336-.532 0-.987.112-1.365.336a2.225 2.225 0 00-.861.903 2.733 2.733 0 00-.273 1.239v5.376c0 .364-.119.672-.357.924a1.224 1.224 0 01-.903.357c-.364 0-.665-.119-.903-.357a1.296 1.296 0 01-.357-.924V6.741c0-.364.119-.665.357-.903.238-.252.539-.378.903-.378s.665.126.903.378c.238.238.357.539.357.903v5.208l-.315-.063a4.37 4.37 0 01.525-.756c.224-.28.497-.539.819-.777a4.123 4.123 0 011.071-.567 3.473 3.473 0 011.281-.231z" fill="#3BB77E"/><path d="M52.698 40.14a5.236 5.236 0 01-2.002-.378 5.243 5.243 0 01-1.61-1.078 5.071 5.071 0 01-1.078-1.596 5.2 5.2 0 01-.378-1.988c0-.719.126-1.381.378-1.988a5.03 5.03 0 011.078-1.61 5.043 5.043 0 011.61-1.064 5.236 5.236 0 012.002-.378c.476 0 .933.056 1.372.168.448.103.854.266 1.218.49a.4.4 0 01.196.196.54.54 0 01.07.266.553.553 0 01-.168.406.478.478 0 01-.532.14 2.812 2.812 0 00-.154-.056 4.324 4.324 0 00-.938-.35 3.96 3.96 0 00-1.064-.14c-.737 0-1.4.173-1.988.518a3.796 3.796 0 00-1.372 1.4c-.336.588-.504 1.255-.504 2.002 0 .737.168 1.405.504 2.002a3.796 3.796 0 001.372 1.4c.588.345 1.25.518 1.988.518a4.52 4.52 0 001.148-.154 4.173 4.173 0 001.022-.392l-.098.336v-2.954l.224.196h-2.142a.58.58 0 01-.406-.154.58.58 0 01-.154-.406.553.553 0 01.56-.56H55.4c.168 0 .303.056.406.168a.58.58 0 01.154.406v3.234c0 .112-.028.21-.084.294a.602.602 0 01-.196.21c-.42.27-.887.49-1.4.658a5.236 5.236 0 01-1.582.238zM58.61 40a.687.687 0 01-.462-.168.532.532 0 01-.182-.406V30.76a.553.553 0 01.56-.56h3.864c.523 0 .994.121 1.414.364.42.233.752.56.994.98.252.41.378.887.378 1.428 0 .392-.074.76-.224 1.106-.149.336-.354.63-.616.882a2.77 2.77 0 01-.896.56l-.308-.224c.318.075.602.21.854.406a2.207 2.207 0 01.868 1.75c.019.345.042.62.07.826.028.205.07.369.126.49.056.112.136.2.238.266a.56.56 0 01.252.336.432.432 0 01-.07.406.47.47 0 01-.238.182.865.865 0 01-.308.028.595.595 0 01-.266-.084 1.697 1.697 0 01-.434-.364c-.14-.168-.256-.406-.35-.714-.093-.308-.14-.728-.14-1.26 0-.299-.046-.546-.14-.742a1.28 1.28 0 00-.378-.476 1.4 1.4 0 00-.532-.252 2.588 2.588 0 00-.602-.07H58.96l.168-.252v3.654a.613.613 0 01-.14.406.467.467 0 01-.378.168zm.35-4.984h3.43c.271-.019.523-.112.756-.28a1.82 1.82 0 00.588-.7A2.23 2.23 0 0063.972 33c0-.495-.158-.905-.476-1.232-.308-.327-.7-.49-1.176-.49h-3.304l.112-.266v4.256l-.168-.252zm17.165.084c0 .719-.117 1.386-.35 2.002a4.971 4.971 0 01-.98 1.596 4.4 4.4 0 01-1.498 1.064 4.682 4.682 0 01-1.89.378 4.714 4.714 0 01-1.904-.378 4.426 4.426 0 01-1.484-1.064 4.971 4.971 0 01-.98-1.596 5.607 5.607 0 01-.35-2.002c0-.728.116-1.395.35-2.002.233-.616.56-1.148.98-1.596.42-.457.914-.812 1.484-1.064a4.717 4.717 0 011.904-.378c.68 0 1.31.126 1.89.378a4.389 4.389 0 011.498 1.064c.42.448.746.98.98 1.596.233.607.35 1.274.35 2.002zm-1.204 0c0-.765-.154-1.442-.462-2.03a3.485 3.485 0 00-1.232-1.386c-.523-.336-1.13-.504-1.82-.504-.691 0-1.302.168-1.834.504a3.485 3.485 0 00-1.232 1.386c-.3.588-.448 1.265-.448 2.03 0 .756.149 1.433.448 2.03.298.588.709 1.05 1.232 1.386.532.336 1.143.504 1.834.504.69 0 1.297-.168 1.82-.504a3.485 3.485 0 001.232-1.386c.308-.597.462-1.274.462-2.03zm10.117-4.256c.159.084.247.21.266.378a.563.563 0 01-.126.462.417.417 0 01-.322.196.748.748 0 01-.392-.084 4.117 4.117 0 00-.994-.434 3.698 3.698 0 00-1.12-.168 3.8 3.8 0 00-1.512.294 3.471 3.471 0 00-1.19.798 3.66 3.66 0 00-.784 1.232 4.298 4.298 0 00-.28 1.582c0 .616.098 1.167.294 1.652.196.485.462.9.798 1.246a3.57 3.57 0 001.19.77 4.07 4.07 0 001.484.266 3.956 3.956 0 002.114-.602.654.654 0 01.392-.07c.13.019.243.084.336.196.112.15.154.308.126.476a.465.465 0 01-.266.35c-.233.14-.5.27-.798.392-.299.112-.611.2-.938.266a5.187 5.187 0 01-2.87-.252 4.767 4.767 0 01-1.582-1.008 4.89 4.89 0 01-1.092-1.582c-.261-.625-.392-1.325-.392-2.1 0-.728.126-1.395.378-2.002a4.833 4.833 0 011.05-1.582 5.037 5.037 0 011.582-1.05 5.058 5.058 0 011.96-.378c.485 0 .957.065 1.414.196.467.13.891.317 1.274.56zm2.527-.644h4.984a.58.58 0 01.406.154.508.508 0 01.168.392c0 .159-.056.29-.168.392a.613.613 0 01-.406.14h-4.508l.126-.238v3.542l-.14-.154h3.892a.58.58 0 01.406.154.508.508 0 01.168.392c0 .159-.056.29-.168.392a.613.613 0 01-.406.14h-3.85l.098-.126v3.626l-.084-.098h4.466c.16 0 .294.056.406.168a.522.522 0 010 .77.58.58 0 01-.406.154h-4.984a.553.553 0 01-.406-.168.58.58 0 01-.154-.406V30.76a.553.553 0 01.56-.56zm8.069 9.8a.687.687 0 01-.462-.168.533.533 0 01-.182-.406V30.76a.553.553 0 01.56-.56h3.864c.522 0 .994.121 1.414.364.42.233.751.56.994.98.252.41.378.887.378 1.428 0 .392-.075.76-.224 1.106a2.8 2.8 0 01-.616.882c-.262.243-.56.43-.896.56l-.308-.224c.317.075.602.21.854.406.252.187.457.43.616.728.158.29.242.63.252 1.022.018.345.042.62.07.826.028.205.07.369.126.49.056.112.135.2.238.266.13.084.214.196.252.336a.434.434 0 01-.07.406.472.472 0 01-.238.182.867.867 0 01-.308.028.591.591 0 01-.266-.084 1.687 1.687 0 01-.434-.364c-.14-.168-.257-.406-.35-.714-.094-.308-.14-.728-.14-1.26 0-.299-.047-.546-.14-.742a1.293 1.293 0 00-.378-.476 1.404 1.404 0 00-.532-.252 2.588 2.588 0 00-.602-.07h-3.122l.168-.252v3.654a.613.613 0 01-.14.406.466.466 0 01-.378.168zm.35-4.984h3.43c.27-.019.522-.112.756-.28a1.83 1.83 0 00.588-.7c.158-.308.238-.653.238-1.036 0-.495-.159-.905-.476-1.232-.308-.327-.7-.49-1.176-.49H96.04l.112-.266v4.256l-.168-.252zm14.157-4.872c.159 0 .29.06.392.182a.537.537 0 01.168.392.653.653 0 01-.028.182.417.417 0 01-.07.168l-3.248 4.522.182-.686v4.522a.553.553 0 01-.168.406.491.491 0 01-.378.168.57.57 0 01-.42-.168.582.582 0 01-.154-.406v-4.41l.098.364-3.15-4.256a1.041 1.041 0 01-.126-.21.903.903 0 01-.028-.21.48.48 0 01.196-.392.607.607 0 01.392-.168c.187 0 .341.089.462.266l2.898 3.976-.266-.042 2.786-3.92c.122-.187.276-.28.462-.28z" fill="#ADADAD"/></svg>