<svg width="18" height="18" fill="none" xmlns="http://www.w3.org/2000/svg"><path fill-rule="evenodd" clip-rule="evenodd" d="M16.28.97a.75.75 0 010 1.06l-.97.97 1.72 1.72a.75.75 0 010 1.06l-2.625 2.625a.75.75 0 01-1.06 0l-1.72-1.72-2.06 2.06a4.876 4.876 0 01-7.39 6.323l-.005-.006a4.875 4.875 0 016.323-7.366L15.22.97a.75.75 0 011.06 0zm-2.03 3.09l-1.564 1.565 1.19 1.19L15.44 5.25l-1.19-1.19zM3.246 14.018a3.375 3.375 0 014.775-4.77 3.375 3.375 0 11-4.775 4.77zm0 0l.003.003-.006-.006.003.003z" fill="#ADADAD"/></svg>