<svg width="24" height="24" fill="none" xmlns="http://www.w3.org/2000/svg"><path d="M9.696 13.248H7.32c-.384 0-.504-.144-.504-.504V9.84c0-.384.144-.504.504-.504h2.376V7.224c0-.96.168-1.872.648-2.712.504-.864 1.224-1.44 2.136-1.776a5.34 5.34 0 011.848-.312h2.352c.336 0 .48.144.48.48V5.64c0 .336-.144.48-.48.48-.648 0-1.296 0-1.944.024-.648 0-.984.312-.984.984-.024.72 0 1.416 0 2.16h2.784c.384 0 .528.144.528.528v2.904c0 .384-.12.504-.528.504h-2.784v7.824c0 .408-.12.552-.552.552h-3c-.36 0-.504-.144-.504-.504v-7.848z" fill="#fff"/></svg>