<svg width="18" height="18" fill="none" xmlns="http://www.w3.org/2000/svg"><g clip-path="url(#clip0_92_1156)" fill-rule="evenodd" clip-rule="evenodd" fill="#ADADAD"><path d="M17.03.97a.75.75 0 010 1.06l-8.25 8.25a.75.75 0 11-1.06-1.06L15.97.97a.75.75 0 011.06 0z"/><path d="M17.03.97a.75.75 0 01.178.778l-5.25 15a.75.75 0 01-1.393.057l-2.883-6.487-6.487-2.883a.75.75 0 01.057-1.393l15-5.25a.75.75 0 01.778.178zM3.533 6.833l5.022 2.232a.75.75 0 01.38.38l2.232 5.022 4.11-11.745L3.534 6.833z"/></g><defs><clipPath id="clip0_92_1156"><path fill="#fff" d="M0 0h18v18H0z"/></clipPath></defs></svg>